<?xml version="1.0" encoding="utf-8"?>
<!-- Generator: Adobe Illustrator 16.0.0, SVG Export Plug-In . SVG Version: 6.00 Build 0)  -->
<!DOCTYPE svg PUBLIC "-//W3C//DTD SVG 1.1//EN" "http://www.w3.org/Graphics/SVG/1.1/DTD/svg11.dtd">
<svg version="1.1" id="Layer_1" xmlns="http://www.w3.org/2000/svg" xmlns:xlink="http://www.w3.org/1999/xlink" x="0px" y="0px"
	 width="512px" height="512px" viewBox="0 0 512 512" enable-background="new 0 0 512 512" xml:space="preserve">
<path fill="#FFFFFF" d="M272,0h-32C142.781,0,64,78.797,64,176c0,68.398,39.009,127.682,96,156.813V352c0,17.672,14.312,32,32,32
	h128c17.688,0,32-14.328,32-32v-19.195c56.981-29.133,96-88.412,96-156.805C448,78.797,369.188,0,272,0z M288,286.857V320h-64
	v-33.143c-54.268-7.768-96-54.435-96-110.857c0-61.859,50.155-112,112-112h32c61.844,0,112,50.141,112,112
	C384,232.425,342.267,279.092,288,286.857z"/>
<path fill="#FFFFFF" d="M208,416h96c8.844,0,16,7.172,16,16s-7.156,16-16,16h-96c-8.845,0-16-7.172-16-16S199.156,416,208,416z"/>
<path fill="#FFFFFF" d="M240,480h32c8.844,0,16,7.172,16,16s-7.156,16-16,16h-32c-8.845,0-16-7.172-16-16S231.156,480,240,480z"/>
</svg>
